<?xml version="1.0" standalone="no"?>
<!DOCTYPE svg PUBLIC "-//W3C//DTD SVG 20010904//EN"
 "http://www.w3.org/TR/2001/REC-SVG-20010904/DTD/svg10.dtd">
<svg version="1.0" xmlns="http://www.w3.org/2000/svg"
 width="167.000000pt" height="136.000000pt" viewBox="0 0 167.000000 136.000000"
 preserveAspectRatio="xMidYMid meet">

<g transform="translate(0.000000,136.000000) scale(0.100000,-0.100000)"
fill="#000000" stroke="none">
<path d="M1318 1093 c-153 -193 -153 -193 -120 -193 17 0 69 55 108 115 l19
29 5 -54 c7 -76 29 -78 103 -10 l56 51 3 -53 3 -53 39 1 c27 1 46 9 64 27 31
31 23 45 -14 28 -41 -18 -48 -3 -35 75 10 54 10 69 -1 75 -21 13 -22 12 -74
-50 -68 -82 -79 -85 -69 -19 13 87 12 93 -12 96 -16 2 -34 -13 -75 -65z"/>
<path d="M922 1133 c-23 -5 -59 -49 -48 -60 3 -3 17 -1 31 5 14 7 35 12 45 12
18 0 16 -5 -14 -52 -58 -92 -59 -96 -36 -108 23 -12 60 2 60 23 0 7 13 40 29
74 33 68 58 90 85 70 23 -17 12 -42 -30 -68 -19 -11 -34 -29 -34 -39 0 -22 86
-100 110 -100 16 0 50 29 50 43 0 4 -9 7 -21 7 -26 0 -79 37 -79 55 0 8 18 24
40 36 49 28 56 46 32 79 -18 23 -25 25 -108 26 -49 1 -99 0 -112 -3z"/>
<path d="M152 830 c-18 -11 -41 -34 -52 -52 -18 -30 -20 -51 -20 -268 0 -217
2 -238 20 -268 11 -18 34 -41 52 -52 32 -19 52 -20 446 -20 329 0 419 3 446
14 50 21 79 69 84 138 3 37 9 58 17 58 7 0 68 -40 137 -90 69 -49 128 -90 132
-90 3 0 6 139 6 310 0 171 -3 310 -6 310 -4 0 -61 -39 -128 -87 -67 -47 -129
-88 -138 -91 -15 -4 -18 3 -18 44 0 62 -33 120 -80 145 -32 18 -65 19 -450 19
-396 0 -416 -1 -448 -20z m892 -29 c16 -11 35 -30 42 -43 18 -32 19 -238 2
-239 -7 -1 -20 -2 -28 -3 -28 -3 -47 13 -54 45 -9 44 -72 104 -126 119 -80 22
-182 -21 -210 -89 -11 -28 -16 -31 -60 -31 -44 0 -49 3 -73 39 -38 58 -90 86
-157 85 -30 0 -69 -8 -86 -17 -41 -21 -84 -72 -91 -108 -7 -39 -24 -50 -62
-43 l-31 7 0 106 c0 116 16 162 63 181 12 5 206 9 432 9 389 1 412 0 439 -18z
m346 -291 c0 -137 -4 -250 -8 -250 -5 0 -50 29 -100 65 l-92 66 0 119 0 118
92 66 c50 36 95 66 100 66 4 0 8 -112 8 -250z m-940 128 c32 -17 50 -35 65
-65 l20 -42 70 0 70 0 17 37 c54 115 218 117 276 2 26 -52 28 -89 6 -133 -26
-51 -44 -66 -95 -81 -67 -20 -119 -5 -164 46 -19 22 -35 50 -37 62 -3 19 -10
21 -71 24 -58 2 -68 0 -73 -15 -33 -109 -130 -154 -229 -108 -110 53 -107 216
5 273 24 12 56 22 70 22 14 0 46 -10 70 -22z m710 -128 c0 -82 -3 -100 -15
-100 -12 0 -15 18 -15 100 0 82 3 100 15 100 12 0 15 -18 15 -100z m-972 -32
c5 -7 13 -24 17 -38 44 -148 269 -165 337 -24 21 42 24 44 64 44 36 0 43 -4
53 -28 28 -67 95 -113 169 -114 82 -2 165 55 179 124 6 32 38 50 72 41 19 -5
21 -12 21 -100 0 -107 -13 -144 -60 -168 -26 -14 -87 -15 -451 -13 l-421 3
-29 33 c-28 31 -29 36 -29 136 0 91 2 105 18 109 32 9 50 7 60 -5z"/>
<path d="M346 620 c-39 -12 -73 -46 -86 -86 -15 -45 1 -95 43 -130 27 -23 38
-26 86 -22 70 6 111 46 111 108 0 37 -2 40 -28 40 -33 0 -67 32 -77 73 -8 29
-7 29 -49 17z m34 -60 c8 -18 27 -36 51 -47 45 -21 49 -43 14 -78 -26 -27 -80
-34 -117 -14 -26 14 -51 74 -42 102 9 31 44 67 65 67 9 0 22 -13 29 -30z"/>
<path d="M793 619 c-99 -29 -114 -177 -22 -225 71 -36 155 -3 179 72 15 44 7
64 -23 64 -34 0 -73 34 -80 70 -7 33 -7 33 -54 19z m42 -62 c11 -18 36 -40 55
-50 23 -11 34 -23 32 -35 -14 -66 -119 -87 -164 -31 -27 32 -23 94 7 124 32
33 46 31 70 -8z"/>
</g>
</svg>
