<?xml version="1.0" standalone="no"?>
<!DOCTYPE svg PUBLIC "-//W3C//DTD SVG 20010904//EN"
 "http://www.w3.org/TR/2001/REC-SVG-20010904/DTD/svg10.dtd">
<svg version="1.0" xmlns="http://www.w3.org/2000/svg"
 width="404.000000pt" height="445.000000pt" viewBox="0 0 404.000000 445.000000"
 preserveAspectRatio="xMidYMid meet">

<g transform="translate(0.000000,445.000000) scale(0.100000,-0.100000)"
fill="#000000" stroke="none">
<path d="M854 2428 c-32 -40 -62 -79 -67 -86 -5 -7 -7 -16 -2 -20 4 -4 27 16
51 43 l44 50 0 -33 c0 -48 23 -50 74 -8 l45 36 3 -37 c3 -34 6 -38 28 -35 14
1 34 12 45 23 20 19 20 19 -13 13 l-32 -7 6 57 c8 70 -8 75 -55 16 -43 -54
-54 -52 -46 10 10 72 -11 66 -81 -22z"/>
<path d="M581 2477 c-41 -20 -38 -37 6 -30 l37 6 -18 -29 c-11 -16 -25 -38
-33 -49 -19 -28 -16 -35 10 -35 19 0 27 8 37 39 18 55 51 94 73 86 25 -10 21
-22 -15 -56 l-33 -29 38 -37 c30 -31 40 -36 54 -27 9 6 19 16 21 24 3 7 0 10
-6 7 -10 -7 -62 28 -62 42 0 3 14 15 30 24 31 19 38 45 18 65 -16 16 -126 15
-157 -1z"/>
<path d="M124 2260 c-47 -19 -54 -45 -54 -193 0 -162 9 -190 68 -207 24 -7
122 -10 279 -8 l243 3 26 26 c16 16 27 40 29 60 1 18 7 35 12 36 5 2 44 -21
86 -52 43 -30 80 -55 82 -55 3 0 5 86 5 190 0 105 -2 190 -5 190 -3 0 -41 -25
-84 -55 -84 -59 -91 -62 -91 -42 0 6 -5 29 -11 50 -17 63 -39 67 -321 66 -134
0 -253 -4 -264 -9z m556 -32 c16 -18 20 -35 20 -95 0 -70 -1 -73 -24 -73 -17
0 -27 8 -36 29 -21 51 -56 76 -107 76 -39 0 -49 -5 -79 -37 -22 -24 -43 -38
-59 -38 -16 0 -37 14 -59 38 -30 32 -40 37 -79 37 -51 0 -82 -21 -104 -72 -10
-25 -20 -33 -38 -33 -24 0 -25 2 -25 75 0 120 -13 115 305 115 259 0 265 0
285 -22z m198 -248 l-3 -81 -62 46 -63 45 0 70 0 70 63 46 62 46 3 -81 c2 -45
2 -117 0 -161z m-567 157 c8 -7 24 -24 33 -39 14 -21 26 -28 52 -28 26 0 38 6
51 28 26 41 44 51 86 52 53 0 97 -43 97 -95 0 -82 -108 -128 -165 -70 -14 13
-25 31 -25 40 0 11 -11 15 -45 15 -34 0 -45 -4 -45 -15 0 -9 -11 -27 -25 -40
-57 -58 -165 -12 -165 70 0 52 44 95 97 95 21 0 45 -6 54 -13z m429 -77 c0
-57 -11 -78 -24 -44 -8 21 -8 89 1 97 17 17 23 2 23 -53z m-583 -47 c24 -51
80 -79 125 -64 37 13 78 49 78 68 0 8 12 13 33 13 23 0 35 -6 42 -22 39 -85
164 -79 204 10 10 23 21 32 38 32 22 0 23 -4 23 -67 0 -55 -4 -71 -22 -90 -21
-23 -22 -23 -285 -23 -314 0 -303 -4 -303 110 0 67 1 70 24 70 18 0 29 -10 43
-37z"/>
<path d="M205 2105 c-14 -13 -25 -36 -25 -50 0 -33 42 -75 75 -75 14 0 37 11
50 25 31 30 33 65 5 65 -13 0 -28 12 -38 30 -21 36 -35 38 -67 5z m55 -15 c6
-12 23 -25 37 -31 23 -9 24 -11 11 -31 -34 -50 -101 -38 -106 20 -5 55 36 84
58 42z"/>
<path d="M485 2105 c-14 -13 -25 -36 -25 -50 0 -33 42 -75 75 -75 14 0 37 11
50 25 31 30 33 65 5 65 -13 0 -28 12 -38 30 -21 36 -35 38 -67 5z m70 -30 c41
-39 41 -59 -1 -75 -31 -12 -68 7 -79 40 -7 21 17 70 34 70 4 0 25 -16 46 -35z"/>
<path d="M1307 2163 c-4 -3 -7 -42 -7 -85 0 -90 7 -98 71 -79 81 24 89 125 13
157 -36 15 -67 18 -77 7z m81 -39 c45 -31 17 -104 -40 -104 -27 0 -28 1 -28
53 0 30 3 57 7 60 11 12 37 8 61 -9z"/>
<path d="M1514 2157 c-3 -8 -4 -47 -2 -88 l3 -74 44 0 c56 0 68 22 14 27 -30
2 -38 7 -38 23 0 15 8 21 33 23 46 5 43 32 -4 32 -28 0 -35 3 -32 18 2 12 14
18 41 20 24 2 37 8 37 18 0 19 -88 20 -96 1z"/>
<path d="M1734 2160 c-85 -35 -60 -164 31 -164 72 0 111 84 63 138 -26 29 -63
39 -94 26z m64 -36 c44 -30 20 -104 -34 -104 -29 0 -64 33 -64 60 0 25 34 60
58 60 10 0 28 -7 40 -16z"/>
<path d="M2049 2155 c-14 -8 -32 -28 -39 -45 -26 -62 36 -133 98 -112 40 13
42 36 3 27 -44 -9 -81 16 -81 55 0 39 37 64 80 55 37 -8 41 11 4 25 -32 12
-33 12 -65 -5z"/>
<path d="M2270 2163 c-53 -19 -77 -71 -54 -118 21 -45 61 -61 106 -42 71 30
72 124 2 153 -19 8 -35 14 -36 13 -2 0 -10 -3 -18 -6z m58 -39 c26 -18 29 -60
5 -86 -34 -38 -103 -10 -103 42 0 30 30 60 60 60 9 0 26 -7 38 -16z"/>
<path d="M2476 2149 c-23 -18 -26 -27 -26 -85 0 -36 4 -64 10 -64 6 0 10 27
10 60 0 54 3 62 24 71 17 8 29 8 45 0 18 -10 21 -21 21 -71 0 -47 3 -60 15
-60 12 0 15 13 15 59 0 54 -3 62 -31 85 -37 31 -49 32 -83 5z"/>
<path d="M2667 2164 c-11 -11 -8 -164 2 -164 5 0 11 12 13 28 2 22 8 28 36 30
19 2 32 9 32 17 0 8 -13 15 -32 17 -25 2 -33 8 -33 23 0 16 8 21 38 25 21 3
39 10 40 15 2 12 -85 20 -96 9z"/>
<path d="M2836 2148 c-2 -13 -3 -45 -2 -73 5 -92 1 -86 53 -83 60 4 72 28 13
28 -37 0 -41 2 -38 23 2 17 11 23 36 25 42 4 37 26 -7 30 -48 5 -38 36 12 40
54 5 42 26 -16 30 -42 3 -47 1 -51 -20z"/>
<path d="M3018 2164 c-5 -4 -8 -43 -8 -86 0 -59 3 -79 13 -76 6 3 13 14 15 26
5 30 26 28 56 -5 28 -30 45 -26 25 5 -10 17 -10 23 4 37 21 20 22 68 2 85 -18
15 -97 25 -107 14z m92 -39 c20 -24 4 -45 -35 -45 -32 0 -35 2 -35 30 0 26 3
30 29 30 16 0 34 -7 41 -15z"/>
<path d="M3222 2153 c-12 -23 -8 -141 5 -154 14 -14 85 -7 91 9 2 8 -9 12 -38
12 -37 0 -41 2 -38 23 2 17 11 23 36 25 42 4 37 26 -7 30 -48 5 -38 36 12 40
51 4 43 26 -11 30 -31 2 -43 -1 -50 -15z"/>
<path d="M3431 2156 c-32 -17 -39 -38 -40 -104 -1 -73 23 -66 27 8 3 59 15 80
43 80 33 0 49 -28 49 -86 0 -30 5 -54 10 -54 6 0 10 28 10 63 0 48 -4 68 -17
79 -27 24 -56 28 -82 14z"/>
<path d="M3643 2151 c-38 -23 -50 -68 -31 -108 17 -36 60 -57 93 -46 33 11 27
29 -8 25 -58 -7 -90 64 -47 103 14 12 28 16 49 12 39 -8 51 10 16 23 -34 13
-35 13 -72 -9z"/>
<path d="M3814 2157 c-3 -8 -4 -47 -2 -88 l3 -74 44 0 c56 0 68 22 14 27 -30
2 -38 7 -38 23 0 15 8 21 33 23 42 4 37 26 -7 30 -48 5 -38 36 12 40 51 4 43
26 -11 30 -29 2 -44 -1 -48 -11z"/>
<path d="M995 2123 c12 -67 59 -143 76 -125 39 41 76 162 50 162 -11 0 -21
-25 -21 -51 0 -22 -28 -69 -41 -69 -14 0 -39 57 -39 90 0 21 -5 30 -16 30 -13
0 -15 -7 -9 -37z"/>
<path d="M1200 2079 c0 -60 3 -80 13 -77 8 3 13 31 15 81 2 64 0 77 -13 77
-12 0 -15 -15 -15 -81z"/>
</g>
</svg>
